<svg xmlns="http://www.w3.org/2000/svg" width="62.243" height="56.541" viewBox="0 0 62.243 56.541">
  <defs>
    <style>
      .cls-1 {
        fill: #fff;
      }
    </style>
  </defs>
  <path id="bxl-amazon" class="cls-1" d="M2.105,46.794c.19-.3.485-.326.9-.062a60.347,60.347,0,0,0,30.8,8.223,61.093,61.093,0,0,0,21.922-4.141l.815-.364c.358-.159.606-.261.759-.339a1.044,1.044,0,0,1,1.362.339c.317.445.236.867-.311,1.244-.662.491-1.555,1.063-2.612,1.694a42.282,42.282,0,0,1-10.857,4.48,46.06,46.06,0,0,1-11.721,1.579A45.467,45.467,0,0,1,16.466,56.37a46.248,46.248,0,0,1-14.087-8.7A.762.762,0,0,1,1.99,47.1a.58.58,0,0,1,.127-.339ZM19.139,30.661a11.474,11.474,0,0,1,1.924-6.691,11.9,11.9,0,0,1,5.295-4.185,28.679,28.679,0,0,1,7.555-1.872c1.014-.115,2.677-.267,4.974-.451V16.5c0-2.4-.261-4.039-.771-4.863a4.244,4.244,0,0,0-3.74-1.682h-.466a6.233,6.233,0,0,0-3.23,1.191,4.7,4.7,0,0,0-1.754,2.848A1.461,1.461,0,0,1,27.8,15.318L21.26,14.5c-.65-.159-.967-.466-.967-1.014a1.575,1.575,0,0,1,.056-.382,10.926,10.926,0,0,1,4.726-7.474,18.083,18.083,0,0,1,8.792-2.72h1.4c4.287,0,7.676,1.122,10.086,3.345A15.991,15.991,0,0,1,46.412,7.49a6.315,6.315,0,0,1,.728,1.172,4.85,4.85,0,0,1,.51,1.477c.159.662.274,1.094.351,1.324a8.17,8.17,0,0,1,.2,1.6c.019.815.05,1.275.05,1.433v13.7a8.424,8.424,0,0,0,.426,2.689,6.27,6.27,0,0,0,.815,1.75l1.331,1.744a1.86,1.86,0,0,1,.345.942.976.976,0,0,1-.46.808c-3.115,2.727-4.828,4.2-5.1,4.44a1.518,1.518,0,0,1-1.632.121A16.781,16.781,0,0,1,42.613,39.4l-.8-.9c-.159-.2-.438-.541-.827-1.094l-.777-1.129A13.941,13.941,0,0,1,33.982,40.6a16.506,16.506,0,0,1-4.754.584,9.944,9.944,0,0,1-7.16-2.683c-1.859-1.791-2.8-4.318-2.8-7.626l-.134-.2Zm9.734-1.141a5.352,5.352,0,0,0,1.1,3.541,3.712,3.712,0,0,0,3,1.331,4.492,4.492,0,0,0,.5-.056,3.817,3.817,0,0,1,.438-.062,5.822,5.822,0,0,0,3.7-3.053,8.145,8.145,0,0,0,.93-2.357,9.67,9.67,0,0,0,.345-2.071c.05-.516.05-1.408.05-2.612v-1.4a20.323,20.323,0,0,0-4.987.46c-3.3.942-4.987,3.038-4.987,6.308l-.09-.05v.022ZM52.646,47.755a2.01,2.01,0,0,1,.339-.445,9.23,9.23,0,0,1,2.727-1.293,20.51,20.51,0,0,1,4.179-.625,3.556,3.556,0,0,1,1.076.078c1.676.159,2.714.438,3.038.849a1.831,1.831,0,0,1,.23,1.02v.389a12.879,12.879,0,0,1-1.082,4.67,11.279,11.279,0,0,1-2.994,4.359.854.854,0,0,1-.51.23.574.574,0,0,1-.23-.031c-.236-.115-.28-.311-.171-.625,1.4-3.268,2.089-5.556,2.089-6.843a1.465,1.465,0,0,0-.23-.9c-.37-.426-1.421-.675-3.171-.675-.631,0-1.377.05-2.26.121-.942.127-1.809.243-2.593.358a.73.73,0,0,1-.466-.115c-.078-.078-.1-.121-.056-.2a.453.453,0,0,1,.056-.165v-.152Z" transform="translate(-1.99 -2.907)"/>
</svg>
