<svg xmlns="http://www.w3.org/2000/svg" width="81.994" height="82.009" viewBox="0 0 81.994 82.009">
  <defs>
    <style>
      .cls-1 {
        fill: #1e2c40;
      }

      .cls-2 {
        fill: #3b83fc;
      }
    </style>
  </defs>
  <g id="noun_digital_marketing_2409913" data-name="noun_digital marketing_2409913" transform="translate(-1 -0.991)">
    <g id="Group_107" data-name="Group 107" transform="translate(1 0.991)">
      <path id="Path_396" data-name="Path 396" class="cls-1" d="M7.662,35.683V49.178a6.488,6.488,0,0,0,6.491,6.491h2.562a6.488,6.488,0,0,0,6.491-6.491V36.537l14.52,4.783a25.785,25.785,0,0,0-5.808,16.228A25.538,25.538,0,1,0,62.154,32.437V2.715a2.109,2.109,0,0,0-.683-1.367c-.683-.342-1.2-.512-1.708-.171L21.328,14.672H9.712A8.749,8.749,0,0,0,1,23.384v3.929A8.767,8.767,0,0,0,7.662,35.683ZM35.335,57.548a20.945,20.945,0,0,1,1.025-6.662h8.029a43.751,43.751,0,0,0-.512,6.662,42.126,42.126,0,0,0,.512,6.662H36.36A20.945,20.945,0,0,1,35.335,57.548ZM37.9,47.3a22.739,22.739,0,0,1,11.445-10.42A26.619,26.619,0,0,0,45.072,47.3Zm0,20.328h7.174a29,29,0,0,0,4.271,10.42A22.02,22.02,0,0,1,37.9,67.626ZM55.662,79.242c-2.9-1.2-5.808-5.3-7.174-11.616h7.174Zm0-15.032H47.8a43.559,43.559,0,0,1,0-13.324h7.858Zm0-16.911H48.488c1.537-6.15,4.271-10.42,7.174-11.616ZM65.57,78.046a26.62,26.62,0,0,0,4.271-10.42h7.174A22.02,22.02,0,0,1,65.57,78.046Zm14.007-20.5a20.945,20.945,0,0,1-1.025,6.662H70.524a43.751,43.751,0,0,0,.512-6.662,42.125,42.125,0,0,0-.512-6.662h8.029A20.945,20.945,0,0,1,79.577,57.548ZM77.015,47.3H69.84a29,29,0,0,0-4.271-10.42A22.739,22.739,0,0,1,77.015,47.3ZM59.079,35.854c2.9,1.2,5.808,5.3,7.174,11.616H59.079Zm0,14.861h7.858a43.559,43.559,0,0,1,0,13.324H59.079Zm0,16.911h7.174c-1.537,6.15-4.271,10.42-7.174,11.616ZM23.207,17.576l35.36-12.47V32.1h-1.2a25.659,25.659,0,0,0-16.911,6.491L23.207,32.95V32.1h0Zm-3.416,31.6a3.062,3.062,0,0,1-3.075,3.075H14.153a3.062,3.062,0,0,1-3.075-3.075V36.024H19.79ZM4.416,23.384a5.322,5.322,0,0,1,5.3-5.3H19.79v14.52H9.712a5.322,5.322,0,0,1-5.3-5.3Z" transform="translate(-1 -0.991)"/>
      <path id="Path_397" data-name="Path 397" class="cls-2" d="M42.6,13.753l6.15-6.15a1.691,1.691,0,0,0-2.391-2.391l-6.15,6.15A1.691,1.691,0,1,0,42.6,13.753Z" transform="translate(26.407 1.636)"/>
      <path id="Path_398" data-name="Path 398" class="cls-2" d="M42,16.008a1.614,1.614,0,0,0,1.708,1.708h8.541a1.614,1.614,0,0,0,1.708-1.708A1.614,1.614,0,0,0,52.249,14.3H43.708A1.614,1.614,0,0,0,42,16.008Z" transform="translate(28.036 8.434)"/>
    </g>
  </g>
</svg>
