<svg xmlns="http://www.w3.org/2000/svg" width="56.251" height="56.251" viewBox="0 0 56.251 56.251">
  <defs>
    <style>
      .cls-1 {
        fill: #fff;
      }
    </style>
  </defs>
  <path id="slack" class="cls-1" d="M2,37.635a5.625,5.625,0,0,0,11.25,0V32.01H7.625A5.625,5.625,0,0,0,2,37.635Zm35.551-9.394a5.625,5.625,0,0,0,5.625-5.625V7.625a5.625,5.625,0,1,0-11.25,0V22.616a5.625,5.625,0,0,0,5.681,5.625Zm20.588-5.625a5.625,5.625,0,0,0-11.25,0v5.625h5.625a5.625,5.625,0,0,0,5.738-5.625ZM22.644,32.01a5.625,5.625,0,0,0-5.625,5.625V52.626a5.625,5.625,0,0,0,11.25,0V37.635A5.625,5.625,0,0,0,22.644,32.01ZM37.607,47H31.982v5.625A5.625,5.625,0,1,0,37.607,47ZM52.626,32.01H37.607a5.625,5.625,0,1,0,0,11.25H52.626a5.625,5.625,0,1,0,0-11.25ZM22.644,16.991H7.625a5.625,5.625,0,0,0,0,11.25H22.644a5.625,5.625,0,0,0,0-11.25ZM22.644,2a5.625,5.625,0,1,0,0,11.25h5.625V7.625A5.625,5.625,0,0,0,22.644,2Z" transform="translate(-2 -2)"/>
</svg>
