<svg xmlns="http://www.w3.org/2000/svg" width="35" height="43" viewBox="0 0 35 43">
  <path id="apple" d="M27.679,8.858A9.418,9.418,0,0,0,29.958,2,9.543,9.543,0,0,0,23.51,5.268a8.966,8.966,0,0,0-2.149,6.643A7.931,7.931,0,0,0,27.679,8.858ZM33.1,24.853a9.7,9.7,0,0,1,4.643-8.191,10.016,10.016,0,0,0-7.867-4.3c-3.353-.344-6.448,1.956-8.232,1.956s-4.3-1.913-7.093-1.87a10.575,10.575,0,0,0-8.9,5.439c-3.783,6.579-.967,16.36,2.816,21.671,1.72,2.6,3.869,5.547,6.706,5.439s3.761-1.763,7.05-1.763,4.3,1.763,7.093,1.7,4.772-2.666,6.577-5.267a23.651,23.651,0,0,0,2.966-6.127A9.481,9.481,0,0,1,33.1,24.853Z" transform="translate(-3.856 -2)"/>
</svg>
