<svg xmlns="http://www.w3.org/2000/svg" width="21.741" height="19.567" viewBox="0 0 21.741 19.567">
    <defs>
        <style>
            .cls-1{fill:#3b83fc}
        </style>
    </defs>
    <path id="bag" d="M20.48 6.261h-3.261V5.174A2.174 2.174 0 0 0 15.045 3H10.7a2.174 2.174 0 0 0-2.178 2.174v1.087H5.261A3.261 3.261 0 0 0 2 9.522v9.784a3.261 3.261 0 0 0 3.261 3.261H20.48a3.261 3.261 0 0 0 3.261-3.261V9.522a3.261 3.261 0 0 0-3.261-3.261zM10.7 5.174h4.348v1.087H10.7zm10.867 14.132a1.087 1.087 0 0 1-1.087 1.087H5.261a1.087 1.087 0 0 1-1.087-1.087v-6.1l5.087 1.75a1.294 1.294 0 0 0 .348 0h6.522a1.294 1.294 0 0 0 .348-.054l5.087-1.7zm0-8.392l-5.609 1.87H9.783l-5.609-1.87V9.522a1.087 1.087 0 0 1 1.087-1.087H20.48a1.087 1.087 0 0 1 1.087 1.087z" class="cls-1" transform="translate(-2 -3)"/>
</svg>
