<svg xmlns="http://www.w3.org/2000/svg" width="20" height="20" viewBox="0 0 20 20">
    <defs>
        <style>
            .cls-1{fill:none}.cls-2{fill:#3b83fc}
        </style>
    </defs>
    <g id="bx-user-circle" transform="translate(-2 -2)">
        <path id="Path_401" d="M12 8a1.913 1.913 0 0 0-2 2 1.913 1.913 0 0 0 2 2 1.913 1.913 0 0 0 2-2 1.913 1.913 0 0 0-2-2z" class="cls-1" data-name="Path 401"/>
        <path id="Path_402" d="M12 4a8.106 8.106 0 0 0-8 8 7.978 7.978 0 0 0 2.39 5.641A5.007 5.007 0 0 1 11 14.573h2a5.007 5.007 0 0 1 4.61 3.068A7.978 7.978 0 0 0 20 12a8.106 8.106 0 0 0-8-8zm0 10a3.913 3.913 0 0 1-4-4 3.913 3.913 0 0 1 4-4 3.913 3.913 0 0 1 4 4 3.913 3.913 0 0 1-4 4z" class="cls-1" data-name="Path 402"/>
        <path id="Path_403" d="M13 16.572h-2a3 3 0 0 0-2.926 2.354 7.716 7.716 0 0 0 7.852 0A3 3 0 0 0 13 16.572z" class="cls-1" data-name="Path 403"/>
        <path id="bxs-user-circle" d="M12 2A10.133 10.133 0 0 0 2 12a10.133 10.133 0 0 0 10 10 10.133 10.133 0 0 0 10-10A10.133 10.133 0 0 0 12 2zm0 18a7.972 7.972 0 0 1-5.59-2.34A4.979 4.979 0 0 1 11 14.572h2a4.979 4.979 0 0 1 4.59 3.088A7.972 7.972 0 0 1 12 20zm0-13a2.914 2.914 0 0 1 3 3 2.914 2.914 0 0 1-3 3 2.915 2.915 0 0 1-3-3 2.915 2.915 0 0 1 3-3z" class="cls-2"/>
    </g>
</svg>
