<svg xmlns="http://www.w3.org/2000/svg" width="22.595" height="22.595" viewBox="0 0 22.595 22.595">
    <defs>
        <style>
            .cls-1{fill:#fff}
        </style>
    </defs>
    <path id="End_Call_Icon" d="M14.017 8.8a2.527 2.527 0 0 1-.538-.1 7.579 7.579 0 0 1-1.052-.313 1.606 1.606 0 0 0-1.991.8l-.177.361a9.779 9.779 0 0 1-2.135-1.599 9.779 9.779 0 0 1-1.606-2.136l.337-.225a1.606 1.606 0 0 0 .8-1.991 8.294 8.294 0 0 1-.313-1.052 7.756 7.756 0 0 1-.1-.546A2.409 2.409 0 0 0 4.84 0H2.431A2.409 2.409 0 0 0 .023 2.738a15.255 15.255 0 0 0 13.263 13.216h.305A2.4 2.4 0 0 0 16 13.537v-2.409A2.409 2.409 0 0 0 14.017 8.8zm.4 4.817a.8.8 0 0 1-.273.6.843.843 0 0 1-.658.2A13.649 13.649 0 0 1 1.677 2.553a.875.875 0 0 1 .2-.658.8.8 0 0 1 .6-.273h2.411a.8.8 0 0 1 .8.634q.048.329.12.65a8.928 8.928 0 0 0 .369 1.244l-1.124.522A.8.8 0 0 0 4.66 5.74a11.634 11.634 0 0 0 5.62 5.62.851.851 0 0 0 1.068-.418l.5-1.124a10.991 10.991 0 0 0 1.269.369q.321.072.65.12a.8.8 0 0 1 .634.8z" class="cls-1" data-name="End Call Icon" transform="rotate(135 8.961 10.32)"/>
</svg>
