<svg xmlns="http://www.w3.org/2000/svg" width="18" height="18" viewBox="0 0 18 18">
    <defs>
        <style>
            .cls-1{fill:#313636}
        </style>
    </defs>
    <path id="Fullscreen" d="M8.561 12.161L3.8 16.931V15.5a.9.9 0 0 0-1.8 0v3.6a.914.914 0 0 0 .9.9h3.6a.9.9 0 0 0 0-1.8H5.069l4.77-4.761a.9.9 0 1 0-1.278-1.278zM5.069 3.8H6.5a.9.9 0 1 0 0-1.8H2.9a.914.914 0 0 0-.9.9v3.6a.9.9 0 1 0 1.8 0V5.069l4.761 4.77a.9.9 0 1 0 1.278-1.278zM19.1 14.6a.9.9 0 0 0-.9.9v1.431l-4.761-4.77a.9.9 0 0 0-1.278 1.278l4.77 4.761H15.5a.9.9 0 0 0 0 1.8h3.6a.914.914 0 0 0 .9-.9v-3.6a.9.9 0 0 0-.9-.9zm.828-12.042A.914.914 0 0 0 19.1 2h-3.6a.9.9 0 0 0 0 1.8h1.431l-4.77 4.761a.9.9 0 1 0 1.278 1.278l4.761-4.77V6.5a.9.9 0 0 0 1.8 0V2.9a.9.9 0 0 0-.072-.342z" class="cls-1" transform="translate(-2 -2)"/>
</svg>
