<svg xmlns="http://www.w3.org/2000/svg" width="17.921" height="17.921" viewBox="0 0 17.921 17.921">
    <defs>
        <style>
            .cls-1{fill:#3b83fc}
        </style>
    </defs>
    <path id="Instagram_Logo" d="M15.745 5.1a1.075 1.075 0 1 0 1.075 1.076A1.075 1.075 0 0 0 15.745 5.1zm4.122 2.168a6.8 6.8 0 0 0-.412-2.177 4.426 4.426 0 0 0-1.039-1.586 4.211 4.211 0 0 0-1.586-1.03 6.541 6.541 0 0 0-2.177-.421C13.7 2 13.4 2 10.96 2s-2.742 0-3.692.054a6.541 6.541 0 0 0-2.177.421 4.283 4.283 0 0 0-1.586 1.03 4.211 4.211 0 0 0-1.03 1.586 6.541 6.541 0 0 0-.421 2.177C2 8.218 2 8.523 2 10.96s0 2.742.054 3.692a6.541 6.541 0 0 0 .421 2.177 4.211 4.211 0 0 0 1.03 1.586 4.283 4.283 0 0 0 1.586 1.03 6.541 6.541 0 0 0 2.177.421c.95.054 1.254.054 3.692.054s2.742 0 3.692-.054a6.541 6.541 0 0 0 2.177-.421 4.211 4.211 0 0 0 1.586-1.03 4.346 4.346 0 0 0 1.039-1.586 6.8 6.8 0 0 0 .412-2.177c0-.95.054-1.254.054-3.692s.001-2.742-.053-3.691zm-1.613 7.276a5.027 5.027 0 0 1-.3 1.667 2.742 2.742 0 0 1-.672 1.03 2.858 2.858 0 0 1-1.03.672 5.027 5.027 0 0 1-1.667.3c-.9.045-1.228.054-3.584.054s-2.688 0-3.584-.054a5.134 5.134 0 0 1-1.738-.269 2.93 2.93 0 0 1-.986-.672 2.688 2.688 0 0 1-.663-1.03 4.964 4.964 0 0 1-.358-1.7c0-.9-.054-1.228-.054-3.584s0-2.688.054-3.584a4.964 4.964 0 0 1 .314-1.7 2.688 2.688 0 0 1 .708-.986 2.814 2.814 0 0 1 .986-.717 5.134 5.134 0 0 1 1.7-.3c.9 0 1.228-.054 3.584-.054s2.688 0 3.584.054a5.027 5.027 0 0 1 1.667.3 2.742 2.742 0 0 1 1.066.717 2.742 2.742 0 0 1 .672.986 5.027 5.027 0 0 1 .3 1.7c.045.9.054 1.228.054 3.584s-.007 2.69-.053 3.586zm-7.294-8.18A4.588 4.588 0 1 0 14.219 7.7a4.6 4.6 0 0 0-3.259-1.336zm0 7.58a2.984 2.984 0 1 1 2.984-2.984 2.984 2.984 0 0 1-2.984 2.984z" class="cls-1" data-name="Instagram Logo" transform="translate(-2 -2)"/>
</svg>
