<svg xmlns="http://www.w3.org/2000/svg" width="2037.551" height="1274.599" viewBox="0 0 2037.551 1274.599"><g transform="translate(0.059 0.25)"><path d="M12.787,422.161Q519.445,391.2,1024.17,590.64t982.661,145.706" transform="translate(0.695 34.601)" fill="none" stroke="#cdd4dd" stroke-width="0.5" stroke-dasharray="3 2" fill-rule="evenodd"/><path d="M0,4.161Q506.658-26.8,1011.383,172.64t982.661,145.706" transform="translate(8.336 509.334) rotate(-2)" fill="none" stroke="#cdd4dd" stroke-width="0.5" stroke-dasharray="3 2" fill-rule="evenodd"/><path d="M0,4.161Q506.658-26.8,1011.383,172.64t982.661,145.706" transform="translate(4.412 566.225) rotate(-4)" fill="none" stroke="#cdd4dd" stroke-width="0.5" stroke-dasharray="5 4" fill-rule="evenodd"/><path d="M0,4.161Q506.658-26.8,1011.383,172.64t982.661,145.706" transform="translate(0.821 651.771) rotate(-7)" fill="none" stroke="#cdd4dd" stroke-width="0.5" stroke-dasharray="7 4" fill-rule="evenodd"/><path d="M0,4.161Q506.658-26.8,1011.383,172.64t982.661,145.706" transform="translate(0 737.427) rotate(-10)" fill="none" stroke="#cdd4dd" stroke-width="0.5" stroke-dasharray="9 7" fill-rule="evenodd"/><path d="M0,4.161Q506.658-26.8,1011.383,172.64t982.661,145.706" transform="translate(1.946 842.708) rotate(-13)" fill="none" stroke="#cdd4dd" stroke-width="0.5" stroke-dasharray="13 9" fill-rule="evenodd"/><path d="M0,4.161Q506.658-26.8,1011.383,172.64t982.661,145.706" transform="translate(8.841 958.763) rotate(-17)" fill="none" stroke="#cdd4dd" stroke-width="0.5" stroke-dasharray="16 12" fill-rule="evenodd"/><path d="M0,4.161Q506.658-26.8,1011.383,172.64t982.661,145.706" transform="translate(16.513 413.389) rotate(1)" fill="none" stroke="#cdd4dd" stroke-width="0.5" stroke-dasharray="3 2" fill-rule="evenodd"/><path d="M0,4.161Q506.658-26.8,1011.383,172.64t982.661,145.706" transform="translate(19.843 374.23) rotate(2)" fill="none" stroke="#cdd4dd" stroke-width="0.5" stroke-dasharray="3 2" fill-rule="evenodd"/><path d="M0,4.161Q506.658-26.8,1011.383,172.64t982.661,145.706" transform="translate(27.411 317.939) rotate(4)" fill="none" stroke="#cdd4dd" stroke-width="0.5" stroke-dasharray="3 2" fill-rule="evenodd"/><path d="M0,4.161Q506.658-26.8,1011.383,172.64T2012.239,315.976" transform="translate(36.226 261.564) rotate(6)" fill="none" stroke="#cdd4dd" stroke-width="0.5" stroke-dasharray="3 2" fill-rule="evenodd"/><path d="M0,4.159Q506.728-26.79,1011.523,172.565t991.471,127" transform="translate(45.416 206.674) rotate(8)" fill="none" stroke="#cdd4dd" stroke-width="0.5" stroke-dasharray="3 2" fill-rule="evenodd"/><path d="M0,4.164Q506.407-26.822,1010.882,172.772t979.582,97.079" transform="translate(58.631 151.069) rotate(10)" fill="none" stroke="#cdd4dd" stroke-width="0.5" stroke-dasharray="3 2" fill-rule="evenodd"/><path d="M0,4.164Q506.407-26.822,1010.882,172.772t979.582,97.079" transform="matrix(0.978, 0.208, -0.208, 0.978, 70.48, 96.145)" fill="none" stroke="#cdd4dd" stroke-width="0.5" stroke-dasharray="3 2" fill-rule="evenodd"/><path d="M0,4.164Q506.407-26.822,1010.882,172.772t979.582,97.079" transform="matrix(0.978, 0.208, -0.208, 0.978, 70.48, 74.307)" fill="none" stroke="#cdd4dd" stroke-width="0.5" stroke-dasharray="2 1" fill-rule="evenodd"/><path d="M0,4.164Q506.407-26.822,1010.882,172.772t979.582,97.079" transform="matrix(0.978, 0.208, -0.208, 0.978, 70.48, 41.55)" fill="none" stroke="#cdd4dd" stroke-width="0.5" stroke-dasharray="2 1" fill-rule="evenodd"/><path d="M0,4.164Q506.407-26.822,1010.882,172.772t979.582,97.079" transform="matrix(0.978, 0.208, -0.208, 0.978, 70.48, 8.794)" fill="none" stroke="#cdd4dd" stroke-width="0.5" stroke-dasharray="2 1" fill-rule="evenodd"/><path d="M0,4.164Q506.407-26.822,1010.882,172.772t979.582,97.079" transform="translate(53.144 25.815) rotate(9)" fill="none" stroke="#cdd4dd" stroke-width="0.5" stroke-dasharray="3 2" fill-rule="evenodd"/><path d="M0,4.164Q506.407-26.822,1010.882,172.772t979.582,97.079" transform="translate(38.436 43.676) rotate(6)" fill="none" stroke="#cdd4dd" stroke-width="0.5" stroke-dasharray="3 2" fill-rule="evenodd"/><path d="M0,4.164Q506.407-26.822,1010.882,172.772t979.582,97.079" transform="translate(38.436 0) rotate(6)" fill="none" stroke="#cdd4dd" stroke-width="0.5" stroke-dasharray="3 2" fill-rule="evenodd"/><path d="M0,4.164Q506.407-26.822,1010.882,172.772t979.582,97.079" transform="translate(26.398 7.643) rotate(3)" fill="none" stroke="#cdd4dd" stroke-width="0.5" stroke-dasharray="5 3" fill-rule="evenodd"/></g></svg>