<svg xmlns="http://www.w3.org/2000/svg" width="16.5" height="22.5" viewBox="0 0 16.5 22.5">
  <g id="location-pin.2" transform="translate(0.25 0.25)">
    <path id="Path_4" data-name="Path 4" d="M16,0A8.128,8.128,0,0,0,8,8.25a7.757,7.757,0,0,0,.821,3.581c.019.089,6.775,9.881,6.775,9.881a.66.66,0,0,0,.542.288h.007a.663.663,0,0,0,.544-.3s6.413-9.681,6.426-9.708A7.742,7.742,0,0,0,24,8.25,8.128,8.128,0,0,0,16,0Zm5.981,11.3-5.854,8.815-6.113-8.825A6.22,6.22,0,0,1,9.333,8.25,6.773,6.773,0,0,1,16,1.375,6.773,6.773,0,0,1,22.667,8.25,6.212,6.212,0,0,1,21.981,11.3Z" transform="translate(-8)" fill="#3b83fc" stroke="#3b83fc" stroke-width="0.5"/>
    <path id="Path_5" data-name="Path 5" d="M24.125,12a4.125,4.125,0,1,0,4.125,4.125A4.125,4.125,0,0,0,24.125,12Zm0,6.875a2.75,2.75,0,1,1,2.75-2.75A2.75,2.75,0,0,1,24.125,18.875Z" transform="translate(-16.125 -7.875)" fill="#3b83fc" stroke="#3b83fc" stroke-width="0.5"/>
  </g>
</svg>
