<svg xmlns="http://www.w3.org/2000/svg" width="77.597" height="81.971" viewBox="0 0 77.597 81.971">
  <defs>
    <style>
      .cls-1 {
        fill: #1e2c40;
      }
    </style>
  </defs>
  <g id="noun_assistant_1231209" transform="translate(-4.59 -2.082)">
    <path id="Path_395" data-name="Path 395" class="cls-1" d="M82.178,41.507a8.541,8.541,0,0,0-7.047-8.4,31.756,31.756,0,0,0-63.5,0,8.541,8.541,0,0,0-7.047,8.4v9.4a8.541,8.541,0,0,0,8.541,8.541h4.561A25.709,25.709,0,0,0,65.523,71.4h3a8.541,8.541,0,0,0,8.541-8.541V58.734a8.541,8.541,0,0,0,5.125-7.815ZM43.376,5.335A28.374,28.374,0,0,1,71.707,32.965h-.914a29.3,29.3,0,0,0-7.166-11.753c-5.372-5.287-12.564-8.02-20.841-7.875A29.04,29.04,0,0,0,16.052,32.982H15.044A28.374,28.374,0,0,1,43.376,5.335ZM18.265,46.691a4.091,4.091,0,0,1-.4-1.777V42.463A25.679,25.679,0,0,1,42.838,16.754c7.337-.094,13.666,2.263,18.4,6.893a26.563,26.563,0,0,1,7.687,18.611v2.656a4.091,4.091,0,0,1-.4,1.777A10.557,10.557,0,0,0,64.344,41.4L44.307,28.345a1.708,1.708,0,0,0-1.871,0L22.45,41.4a10.548,10.548,0,0,0-4.185,5.287ZM8.015,50.919v-9.4A5.125,5.125,0,0,1,13.14,36.4h1.973a29.109,29.109,0,0,0-.649,6.081v2.451a7.465,7.465,0,0,0,2.819,5.859l.384.307v4.954H13.114a5.125,5.125,0,0,1-5.125-5.133ZM43.376,80.685a22.335,22.335,0,0,1-22.31-22.3V50.27a7.14,7.14,0,0,1,3.246-5.979L43.376,31.812,62.44,44.265a7.149,7.149,0,0,1,3.246,5.979v8.14a22.207,22.207,0,0,1-2.2,9.643H53.531V63.936a1.708,1.708,0,0,0-1.708-1.708H38.072a1.708,1.708,0,0,0-1.708,1.708V74.553a1.708,1.708,0,0,0,1.708,1.708H51.823a1.708,1.708,0,0,0,1.708-1.708V71.435h7.918A22.293,22.293,0,0,1,43.376,80.685Zm6.739-15.041v7.2H39.78v-7.2Zm23.54-2.75a5.125,5.125,0,0,1-5.125,5.125H67.223a25.547,25.547,0,0,0,1.853-8.541h4.578Zm5.125-11.958a5.125,5.125,0,0,1-5.125,5.125H69.1V51.107l.384-.307A7.474,7.474,0,0,0,72.3,44.932V42.258a29.544,29.544,0,0,0-.6-5.876h1.93a5.125,5.125,0,0,1,5.125,5.125Z"/>
  </g>
</svg>
