<svg xmlns="http://www.w3.org/2000/svg" width="21.165" height="23.091" viewBox="0 0 21.165 23.091">
    <defs>
        <style>
            .cls-1{fill:#fff}
        </style>
    </defs>
    <path id="play" d="M22.725 10.7L10.332 3.59A4.388 4.388 0 0 0 3.75 7.439v14.266a4.385 4.385 0 0 0 6.582 3.8L22.725 18.4a4.388 4.388 0 0 0 0-7.6zm-1.283 5.376L9.049 23.283a1.847 1.847 0 0 1-1.822 0 1.822 1.822 0 0 1-.911-1.578V7.387a1.822 1.822 0 0 1 .911-1.578 1.937 1.937 0 0 1 .911-.244 1.976 1.976 0 0 1 .911.244l12.394 7.159a1.822 1.822 0 0 1 0 3.156z" class="cls-1" transform="translate(-3.75 -3.002)"/>
</svg>
