<svg xmlns="http://www.w3.org/2000/svg" width="43.585" height="43.601" viewBox="0 0 43.585 43.601">
  <defs>
    <style>
      .cls-1 {
        fill: #fff;
      }
    </style>
  </defs>
  <path id="dropbox" class="cls-1" d="M44.727,23.371l-7.081-5.512,7.1-5.577a2.179,2.179,0,0,0,.828-1.874,2.309,2.309,0,0,0-1.089-1.743l-11.2-6.384a2.179,2.179,0,0,0-2.505.261l-6.994,6.1L16.8,2.543a2.179,2.179,0,0,0-2.505-.261L3.093,8.665A2.309,2.309,0,0,0,2,10.408a2.179,2.179,0,0,0,.828,1.874l7.1,5.577L2.853,23.284a2.176,2.176,0,0,0,.24,3.617l7.429,4.357v5.381a2.179,2.179,0,0,0,1.046,1.852L22.657,45.31a2.179,2.179,0,0,0,2.179,0l11.089-6.819a2.179,2.179,0,0,0,1.046-1.852v-5.4L44.4,26.988a2.24,2.24,0,0,0,.327-3.617ZM32.5,6.835l7.037,4.009L33.986,15.2,27.45,11.192ZM30.13,17.99l-6.34,4.357L17.45,17.99l6.34-3.9ZM8.082,10.844l6.994-4.009,5.033,4.357L13.572,15.2Zm0,13.922,5.447-4.183,6.536,4.532-4.837,3.769Zm24.6,10.588-8.889,5.49-8.911-5.49V33.611a2.179,2.179,0,0,0,1.852-.392l7.059-5.447,7.059,5.447a2.93,2.93,0,0,0,1.852.458Zm-.327-6.536-4.858-3.7,6.536-4.532L39.5,24.809Z" transform="translate(-1.997 -2.001)"/>
</svg>
