<svg xmlns="http://www.w3.org/2000/svg" width="61.22" height="68" viewBox="0 0 61.22 68">
  <defs>
    <style>
      .cls-1 {
        fill: #3295fc;
      }
    </style>
  </defs>
  <path id="file-upload-alt" class="cls-1" d="M37,63.2H13.2a3.4,3.4,0,0,1-3.4-3.4V12.2a3.4,3.4,0,0,1,3.4-3.4h17V19A10.2,10.2,0,0,0,40.4,29.2H50.6V36a3.4,3.4,0,0,0,6.8,0V25.6a4.454,4.454,0,0,0-.2-.918v-.306a3.638,3.638,0,0,0-.646-.952h0L36.15,3.02h0a3.638,3.638,0,0,0-.952-.646,1.088,1.088,0,0,0-.306,0A2.992,2.992,0,0,0,33.77,2H13.2A10.2,10.2,0,0,0,3,12.2V59.8A10.2,10.2,0,0,0,13.2,70H37a3.4,3.4,0,0,0,0-6.8Zm0-49.606L45.806,22.4H40.4A3.4,3.4,0,0,1,37,19ZM20,22.4a3.4,3.4,0,1,0,0,6.8h3.4a3.4,3.4,0,0,0,0-6.8ZM40.4,36H20a3.4,3.4,0,1,0,0,6.8H40.4a3.4,3.4,0,1,0,0-6.8ZM63.214,53.986l-6.8-6.8a3.515,3.515,0,0,0-4.828,0l-6.8,6.8a3.414,3.414,0,0,0,4.828,4.828l.986-1.02V66.6a3.4,3.4,0,1,0,6.8,0V57.794l.986,1.02a3.414,3.414,0,1,0,4.828-4.828ZM33.6,56.4a3.4,3.4,0,1,0,0-6.8H20a3.4,3.4,0,1,0,0,6.8Z" transform="translate(-3 -2)"/>
</svg>
