<svg xmlns="http://www.w3.org/2000/svg" width="23" height="25" viewBox="0 0 23 25"><defs><style>.a{fill:#3b83fc;}</style></defs><path class="a" d="M24.722,9.5h0L17.055,2.93a3.9,3.9,0,0,0-5.111,0L4.278,9.5A3.708,3.708,0,0,0,3,12.319V23.231a3.79,3.79,0,0,0,3.833,3.746H22.167A3.79,3.79,0,0,0,26,23.231V12.306A3.708,3.708,0,0,0,24.722,9.5ZM17.055,24.479H11.944V18.237a1.263,1.263,0,0,1,1.278-1.249h2.556a1.263,1.263,0,0,1,1.278,1.249Zm6.389-1.249a1.263,1.263,0,0,1-1.278,1.249H19.611V18.237a3.79,3.79,0,0,0-3.833-3.746H13.222a3.79,3.79,0,0,0-3.833,3.746v6.243H6.833a1.263,1.263,0,0,1-1.278-1.249V12.306a1.236,1.236,0,0,1,.434-.936l7.667-6.555a1.3,1.3,0,0,1,1.687,0L23.01,11.37a1.236,1.236,0,0,1,.434.936Z" transform="translate(-3 -1.976)"/></svg>