<svg xmlns="http://www.w3.org/2000/svg" width="46.137" height="46.137" viewBox="0 0 46.137 46.137">
  <defs>
    <style>
      .cls-1 {
        fill: #2db67d;
      }
    </style>
  </defs>
  <path id="slack" class="cls-1" d="M2,31.228a4.614,4.614,0,1,0,9.227,0V26.614H6.614A4.614,4.614,0,0,0,2,31.228Zm29.158-7.7a4.614,4.614,0,0,0,4.614-4.614V6.614a4.614,4.614,0,1,0-9.227,0v12.3a4.614,4.614,0,0,0,4.66,4.614Zm16.886-4.614a4.614,4.614,0,1,0-9.227,0v4.614h4.614a4.614,4.614,0,0,0,4.706-4.614Zm-29.112,7.7a4.614,4.614,0,0,0-4.614,4.614v12.3a4.614,4.614,0,1,0,9.227,0v-12.3A4.614,4.614,0,0,0,18.932,26.614ZM31.2,38.909H26.591v4.614A4.614,4.614,0,1,0,31.2,38.909Zm12.319-12.3H31.2a4.614,4.614,0,0,0,0,9.227H43.523a4.614,4.614,0,1,0,0-9.227ZM18.932,14.3H6.614a4.614,4.614,0,0,0,0,9.227H18.932a4.614,4.614,0,0,0,0-9.227Zm0-12.3a4.614,4.614,0,1,0,0,9.227h4.614V6.614A4.614,4.614,0,0,0,18.932,2Z" transform="translate(-2 -2)"/>
</svg>
