<svg xmlns="http://www.w3.org/2000/svg" width="24.914" height="20.282" viewBox="0 0 24.914 20.282">
  <defs>
    <style>
      .cls-1 {
        fill: #67798d;
      }
    </style>
  </defs>
  <path id="twitter" class="cls-1" d="M26.914,6.279a10.576,10.576,0,0,1-2.94.8,5.145,5.145,0,0,0,2.255-2.828,10.227,10.227,0,0,1-3.251,1.246,5.107,5.107,0,0,0-8.72,4.659A14.5,14.5,0,0,1,3.732,4.809a5.182,5.182,0,0,0-.685,2.579,5.1,5.1,0,0,0,2.267,4.248A5.045,5.045,0,0,1,3,11v.062a5.107,5.107,0,0,0,4.111,4.983,4.9,4.9,0,0,1-1.37.212,6.1,6.1,0,0,1-.959-.087,5.12,5.12,0,0,0,4.771,3.538,10.24,10.24,0,0,1-6.3,2.192A9.879,9.879,0,0,1,2,21.825a14.413,14.413,0,0,0,7.835,2.3A14.438,14.438,0,0,0,24.422,9.58V8.92a10.5,10.5,0,0,0,2.491-2.641Z" transform="translate(-2 -3.849)"/>
</svg>
