<svg xmlns="http://www.w3.org/2000/svg" width="16.794" height="13.672" viewBox="0 0 16.794 13.672"><defs><style>.a{fill:#3b83fc;}</style></defs><path class="a" d="M18.794,5.487a7.129,7.129,0,0,1-1.982.537,3.468,3.468,0,0,0,1.52-1.906,6.894,6.894,0,0,1-2.192.84A3.443,3.443,0,0,0,10.263,8.1a9.774,9.774,0,0,1-7.1-3.6,3.493,3.493,0,0,0-.462,1.738A3.434,3.434,0,0,0,4.234,9.1,3.4,3.4,0,0,1,2.672,8.67v.042a3.443,3.443,0,0,0,2.771,3.359,3.3,3.3,0,0,1-.924.143,4.115,4.115,0,0,1-.647-.059,3.451,3.451,0,0,0,3.216,2.385A6.9,6.9,0,0,1,2.84,16.017a6.659,6.659,0,0,1-.84-.05A9.715,9.715,0,0,0,7.282,17.52a9.732,9.732,0,0,0,9.833-9.808V7.267A7.079,7.079,0,0,0,18.794,5.487Z" transform="translate(-2 -3.849)"/></svg>