<svg id="Asset_1" data-name="Asset 1" xmlns="http://www.w3.org/2000/svg" width="123.585" height="45.602" viewBox="0 0 123.585 45.602">
  <defs>
    <style>
      .cls-1 {
        fill: #3b83fc;
      }

      .cls-2 {
        fill: #fff;
      }

      .cls-3 {
        fill: #4b4d4f;
      }
    </style>
  </defs>
  <g id="Layer_1" data-name="Layer 1" transform="translate(0)">
    <path id="Path_377" data-name="Path 377" class="cls-1" d="M58.316,7.452A7.452,7.452,0,0,0,50.864,0H7.452A7.452,7.452,0,0,0,0,7.452V32.241a7.452,7.452,0,0,0,7.452,7.452H47.6l9.009,5.733a1.116,1.116,0,0,0,1.718-.943V32.9a1.24,1.24,0,0,0-.024-.186c0-.158.024-.3.024-.481Z" transform="translate(0)"/>
    <path id="Path_378" data-name="Path 378" class="cls-2" d="M16.524,48.646l2.543-1.457a.487.487,0,0,1,.651.167,3.109,3.109,0,0,0,2.947,1.466c2.156,0,3.093-1.135,3.093-2.737V32.894a.484.484,0,0,1,.484-.484h2.92a.484.484,0,0,1,.484.484V46.073c0,4.283-3.066,6.582-7,6.582a6.854,6.854,0,0,1-6.317-3.346A.49.49,0,0,1,16.524,48.646Z" transform="translate(-11.323 -22.552)"/>
    <path id="Path_379" data-name="Path 379" class="cls-2" d="M68.349,57.17a7.5,7.5,0,1,1,7.5,7.5,7.409,7.409,0,0,1-7.5-7.5Zm11.348,0a3.775,3.775,0,1,0-1.081,2.788A3.772,3.772,0,0,0,79.7,57.17Z" transform="translate(-47.56 -34.556)"/>
    <path id="Path_380" data-name="Path 380" class="cls-2" d="M141.347,45.166a7.18,7.18,0,0,1-6.923,7.488,5.742,5.742,0,0,1-3.808-1.256.481.481,0,0,0-.785.374h0a.484.484,0,0,1-.484.484h-2.692a.487.487,0,0,1-.487-.484V32.894a.487.487,0,0,1,.487-.484h2.692a.484.484,0,0,1,.484.484v5.663a.481.481,0,0,0,.785.374,5.741,5.741,0,0,1,3.808-1.253A7.178,7.178,0,0,1,141.347,45.166Zm-3.65,0a3.944,3.944,0,1,1-.021,0Z" transform="translate(-87.795 -22.552)"/>
    <path id="Path_381" data-name="Path 381" class="cls-3" d="M217.211,44.216a7.29,7.29,0,0,1-7.029,7.6,5.81,5.81,0,0,1-3.933-1.329.441.441,0,0,0-.745.322v.158a.444.444,0,0,1-.444.447h-2.826a.444.444,0,0,1-.444-.447V31.694a.444.444,0,0,1,.444-.444h2.826a.444.444,0,0,1,.444.444v5.922a.441.441,0,0,0,.736.322,5.81,5.81,0,0,1,3.933-1.329A7.292,7.292,0,0,1,217.211,44.216Zm-3.717,0a4,4,0,1,0-4.012,4.061A3.866,3.866,0,0,0,213.494,44.216Z" transform="translate(-140.414 -21.745)"/>
    <path id="Path_382" data-name="Path 382" class="cls-3" d="M268.79,50.19a.447.447,0,0,1,.42.608l-5.028,13.809c-1.439,3.981-3.753,5.815-7.175,5.779a.444.444,0,0,1-.432-.444V67.347a.444.444,0,0,1,.42-.441,3.417,3.417,0,0,0,3.294-2.588.453.453,0,0,0,0-.335L254.708,50.81a.444.444,0,0,1,.408-.608H258.2a.447.447,0,0,1,.414.286l3.188,8.24a.444.444,0,0,0,.836-.021l2.71-8.2a.441.441,0,0,1,.42-.3Z" transform="translate(-177.215 -34.924)"/>
    <path id="Path_383" data-name="Path 383" class="cls-3" d="M312.516,60.718a4.094,4.094,0,0,0,3.005-1.183.438.438,0,0,1,.538-.073l2.245,1.293a.45.45,0,0,1,.119.672,7.345,7.345,0,0,1-5.965,2.661c-4.842,0-7.908-3.312-7.908-7.6a7.453,7.453,0,1,1,14.9,0,8.046,8.046,0,0,1-.082,1.141.447.447,0,0,1-.441.386h-9.846a.447.447,0,0,0-.4.639A3.9,3.9,0,0,0,312.516,60.718Zm2.634-5.59a.441.441,0,0,0,.423-.581,3.458,3.458,0,0,0-3.4-2.327,3.572,3.572,0,0,0-3.583,2.29.447.447,0,0,0,.411.608Z" transform="translate(-211.919 -34.013)"/>
    <path id="Path_384" data-name="Path 384" class="cls-3" d="M375.543,54.835v8.4a.444.444,0,0,1-.444.447h-2.826a.447.447,0,0,1-.447-.447V55.3a2.679,2.679,0,0,0-2.85-2.966c-1.825,0-3.169,1.065-3.169,3.571v7.33a.447.447,0,0,1-.444.447h-2.829a.444.444,0,0,1-.444-.447V49.719a.444.444,0,0,1,.444-.447h2.829a.447.447,0,0,1,.444.447h0a.441.441,0,0,0,.73.335A5.282,5.282,0,0,1,370.1,48.87C373.152,48.87,375.543,51,375.543,54.835Z" transform="translate(-251.958 -34.006)"/>
  </g>
</svg>
