<svg xmlns="http://www.w3.org/2000/svg" width="23.067" height="27.217" viewBox="0 0 23.067 27.217">
  <defs>
    <style>
      .cls-1 {
        fill: #fff;
      }
    </style>
  </defs>
  <path id="bxl-paypal" class="cls-1" d="M27.309,12.8a8.09,8.09,0,0,1-.06,3.1q-1.319,6.748-8.584,6.746H18a1,1,0,0,0-.671.251,1.088,1.088,0,0,0-.361.645l-.062.285-.835,5.255-.032.228a1.066,1.066,0,0,1-.373.643,1.007,1.007,0,0,1-.675.251H11.176a.6.6,0,0,1-.5-.227.69.69,0,0,1-.136-.548c.092-.563.224-1.417.4-2.551s.311-1.985.4-2.551.227-1.417.411-2.545.32-1.979.409-2.545a.587.587,0,0,1,.654-.56h1.988a15.554,15.554,0,0,0,3.588-.319,9.137,9.137,0,0,0,4.359-2.189,9.149,9.149,0,0,0,2.356-3.736,13.448,13.448,0,0,0,.532-2.021c.009-.062.021-.1.038-.112a.05.05,0,0,1,.053-.017.571.571,0,0,1,.094.053,3.846,3.846,0,0,1,1.48,2.465ZM24.7,8.521a10.69,10.69,0,0,1-.7,3.586,7.378,7.378,0,0,1-4.587,4.785,12.051,12.051,0,0,1-3.829.642c0,.009-.455.011-1.366.011l-1.364-.011a1.629,1.629,0,0,0-1.793,1.456q-.029.12-1.292,8.05a.163.163,0,0,1-.183.154H5.1a.732.732,0,0,1-.731-.838L7.9,4.008A1.22,1.22,0,0,1,9.1,2.991H18.18a7.974,7.974,0,0,1,1.479.2,9.734,9.734,0,0,1,1.7.485A5.149,5.149,0,0,1,23.84,5.542,5.125,5.125,0,0,1,24.7,8.521Z" transform="translate(-4.365 -2.991)"/>
</svg>
