<svg xmlns="http://www.w3.org/2000/svg" width="16" height="16" viewBox="0 0 16 16">
    <defs>
        <style>
            .cls-1{fill:#fff}
        </style>
    </defs>
    <path id="Message_Icon" d="M15.6 6.8h-.8V4.4A2.4 2.4 0 0 0 12.4 2h-8A2.4 2.4 0 0 0 2 4.4V14a.8.8 0 0 0 .5.736.672.672 0 0 0 .3.064.8.8 0 0 0 .568-.232l2.248-2.256H6.8v1.152a2.4 2.4 0 0 0 2.4 2.4h5.536l1.9 1.9A.8.8 0 0 0 17.2 18a.672.672 0 0 0 .3-.064.8.8 0 0 0 .5-.736v-8a2.4 2.4 0 0 0-2.4-2.4zM6.8 9.2v1.512H5.288a.8.8 0 0 0-.568.232L3.6 12.072V4.4a.8.8 0 0 1 .8-.8h8a.8.8 0 0 1 .8.8v2.4h-4a2.4 2.4 0 0 0-2.4 2.4zm9.6 6.072l-.8-.8a.8.8 0 0 0-.568-.24H9.2a.8.8 0 0 1-.8-.8V9.2a.8.8 0 0 1 .8-.8h6.4a.8.8 0 0 1 .8.8z" class="cls-1" data-name="Message Icon" transform="translate(-2 -2)"/>
</svg>
