<svg xmlns="http://www.w3.org/2000/svg" width="12" height="16.5" viewBox="0 0 12 16.5">
    <defs>
        <style>
            .cls-1{fill:#fff}
        </style>
    </defs>
    <path id="Microphone_Icon" d="M10 11.5a3 3 0 0 0 3-3V4a3 3 0 1 0-6 0v4.5a3 3 0 0 0 3 3zM8.5 4a1.5 1.5 0 0 1 3 0v4.5a1.5 1.5 0 0 1-3 0zM16 8.5a.75.75 0 1 0-1.5 0 4.5 4.5 0 1 1-9 0 .75.75 0 1 0-1.5 0 6 6 0 0 0 5.25 5.948V16h-1.5a.75.75 0 0 0 0 1.5h4.5a.75.75 0 0 0 0-1.5h-1.5v-1.552A6 6 0 0 0 16 8.5z" class="cls-1" data-name="Microphone Icon" transform="translate(-4 -1)"/>
</svg>
