<svg xmlns="http://www.w3.org/2000/svg" width="83.463" height="81.948" viewBox="0 0 83.463 81.948">
  <defs>
    <style>
      .cls-1 {
        fill: #3b83fc;
      }

      .cls-2 {
        fill: #1e2c40;
      }
    </style>
  </defs>
  <g id="noun_Designer_94194" transform="translate(-4.017 -2.101)">
    <g id="Group_12" data-name="Group 12" transform="translate(4.017 2.101)">
      <g id="Group_11" data-name="Group 11">
        <path id="Path_51" data-name="Path 51" class="cls-1" d="M12.947,65.354h.008a1.54,1.54,0,0,0,1.54-1.529l.343-47.748a1.541,1.541,0,0,0-.337-.961L11.124,4.246A1.54,1.54,0,0,0,9.661,3.163H9.653A1.54,1.54,0,0,0,8.187,4.232L4.7,15.068a1.531,1.531,0,0,0-.346.95L4.017,63.766a1.538,1.538,0,0,0,1.532,1.551Zm-1.521-3.088-4.317-.021.319-44.667,4.318.021ZM9.629,9.815l1.459,4.7L8.123,14.5Z" transform="translate(-4.017 -2.114)"/>
        <path id="Path_52" data-name="Path 52" class="cls-1" d="M37.332,60.189a12.017,12.017,0,0,0-12,12,1.54,1.54,0,0,0,3.08,0,8.924,8.924,0,0,1,17.847,0,1.54,1.54,0,0,0,3.08,0A12.02,12.02,0,0,0,37.332,60.189Z" transform="translate(-4.274 -2.801)"/>
        <path id="Path_53" data-name="Path 53" class="cls-2" d="M87.043,70.866,76.283,60.105V20.851a1.54,1.54,0,0,0-.023-.225l4.152-4.175A8.416,8.416,0,0,0,68.479,4.582L65.85,7.225a1.533,1.533,0,0,0-.478-.083h-46.2a1.54,1.54,0,0,0-1.54,1.54V63.764c0,.006,0,.012,0,.018L5.747,75.665a1.54,1.54,0,0,0,1.089,2.629H17.628v4.215a1.54,1.54,0,0,0,1.54,1.54H74.743a1.54,1.54,0,0,0,1.54-1.54V80.041l.792.792a1.541,1.541,0,0,0,2.179,0l7.79-7.789a1.54,1.54,0,0,0,0-2.178ZM60.7,16.856,68.182,24.3A5.305,5.305,0,0,1,60.7,16.856Zm9.7,5.3-7.565-7.524,5.584-5.615,7.565,7.524ZM74.445,5.182a5.334,5.334,0,0,1,3.784,9.1l-.077.077L70.586,6.832l.077-.077A5.293,5.293,0,0,1,74.445,5.182ZM36.762,49.008,62.967,75.214H10.556ZM73.2,80.969h-52.5V78.294H66.686a1.54,1.54,0,0,0,1.089-2.629L37.851,45.741a1.585,1.585,0,0,0-2.178,0L20.708,60.7V10.224H62.868L58.88,14.235A8.416,8.416,0,0,0,70.814,26.1l2.39-2.4V57.027L42.979,26.8a1.585,1.585,0,0,0-2.178,0l-7.79,7.79a1.542,1.542,0,0,0,0,2.178L73.2,76.963Zm4.96-3.4L36.279,35.68l5.612-5.612L83.775,71.955Z" transform="translate(-4.032 -2.101)"/>
      </g>
    </g>
  </g>
</svg>
