<svg xmlns="http://www.w3.org/2000/svg" width="69.701" height="80" viewBox="0 0 69.701 80">
  <defs>
    <style>
      .cls-1 {
        fill: #1e2c40;
      }

      .cls-2 {
        fill: #3b83fc;
      }
    </style>
  </defs>
  <g id="noun_developer_963312" transform="translate(-13.1 -8)">
    <g id="Group_14" data-name="Group 14">
      <g id="Group_13" data-name="Group 13">
        <path id="Path_55" data-name="Path 55" class="cls-1" d="M48,43.3h0A17.65,17.65,0,1,0,30.3,25.7,17.733,17.733,0,0,0,48,43.3ZM48,12a13.7,13.7,0,0,1,0,27.4h0A13.7,13.7,0,1,1,48,12Z"/>
        <path id="Path_56" data-name="Path 56" class="cls-1" d="M63.4,44.3a2.035,2.035,0,0,0-1.5.6,20.051,20.051,0,0,1-27.8,0,2.2,2.2,0,0,0-1.5-.6,21.137,21.137,0,0,0-19.5,21V75a12.974,12.974,0,0,0,13,13H69.8a12.974,12.974,0,0,0,13-13V65.3A20.975,20.975,0,0,0,63.4,44.3ZM78.9,75a8.963,8.963,0,0,1-9,9H26.1a8.963,8.963,0,0,1-9-9V65.3A17.138,17.138,0,0,1,32,48.4a23.5,23.5,0,0,0,16,6.1,23.982,23.982,0,0,0,16-6.1A17.062,17.062,0,0,1,78.9,65.3Z"/>
        <path id="Path_57" data-name="Path 57" class="cls-2" d="M59.1,62.4a1.98,1.98,0,0,0-2.8,2.8L60,69l-3.7,3.7a1.933,1.933,0,0,0,0,2.8,1.933,1.933,0,0,0,2.8,0l5.1-5.1a1.933,1.933,0,0,0,0-2.8Z"/>
        <path id="Path_58" data-name="Path 58" class="cls-2" d="M51.8,57.1a2,2,0,0,0-2.5,1.4L43.7,78.4a2,2,0,0,0,1.4,2.5,1.087,1.087,0,0,0,.5.1,1.927,1.927,0,0,0,1.9-1.5l5.6-19.9A2.023,2.023,0,0,0,51.8,57.1Z"/>
        <path id="Path_59" data-name="Path 59" class="cls-2" d="M39.7,62.4a1.933,1.933,0,0,0-2.8,0l-5.1,5.1a1.933,1.933,0,0,0,0,2.8l5.1,5.1a1.933,1.933,0,0,0,2.8,0,1.933,1.933,0,0,0,0-2.8L36,69l3.7-3.7A2.052,2.052,0,0,0,39.7,62.4Z"/>
      </g>
    </g>
  </g>
</svg>
