<svg xmlns="http://www.w3.org/2000/svg" width="43.098" height="36.204" viewBox="0 0 43.098 36.204">
  <path id="Path_385" data-name="Path 385" d="M26.125-64.258v6.2a12.552,12.552,0,0,0-5.431,2.678,12.476,12.476,0,0,0-2.976,4.439A17.224,17.224,0,0,0,16.6-44.37q4.563,0,6.77,2.6a8.428,8.428,0,0,1,2.207,5.53,7.792,7.792,0,0,1-2.43,5.827A7.873,7.873,0,0,1,17.5-28.054a9.105,9.105,0,0,1-7.216-3.6q-3-3.6-3-9.845A22.945,22.945,0,0,1,9.66-51.81a25.161,25.161,0,0,1,6.472-8.233A19.194,19.194,0,0,1,26.125-64.258Zm-24.252,0v6.2A12.552,12.552,0,0,0-3.557-55.38a12.476,12.476,0,0,0-2.976,4.439A17.224,17.224,0,0,0-7.649-44.37q4.612,0,6.794,2.6a8.481,8.481,0,0,1,2.182,5.53A7.792,7.792,0,0,1-1.1-30.409a7.873,7.873,0,0,1-5.654,2.356,9.13,9.13,0,0,1-7.191-3.6q-3.025-3.6-3.025-9.845A22.945,22.945,0,0,1-14.592-51.81,25.161,25.161,0,0,1-8.12-60.042,19.194,19.194,0,0,1,1.873-64.258Z" transform="translate(16.973 64.258)" fill="#3b83fc"/>
</svg>
