<svg xmlns="http://www.w3.org/2000/svg" width="78.639" height="82.327" viewBox="0 0 78.639 82.327">
  <path id="Path_399" data-name="Path 399" d="M83.636,62.135l-.292-.083c-4.256-1.146-5.7-2.241-7.59-2.962-6.723-2.56-8.469-4.407-8.917-5.279-.018-.03-.03-.065-.045-.1l-.04-5.874c3.588-4.8,6.155-10.8,6.163-17.008h0s2.518-9.8-.3-16.3C69.921,8.327,62.876,8.19,62.258,8.19h-.043s-.43-3.824,4.151-6.575C67.132,1.154,62.74.01,56.67.01c-9.268,0-22.449,2.667-27.152,14.5-2.922,7.362-.761,18.192-.761,18.192l0-.006a29.906,29.906,0,0,0,6.085,15.141l-.04,5.874c-.015.03-.028.065-.045.1-.447.872-2.193,2.719-8.917,5.279-1.894.721-3.334,1.816-7.59,2.962l-.292.083a9.411,9.411,0,0,0-6.482,8.929V82.337H90.118V71.064A9.411,9.411,0,0,0,83.636,62.135ZM32.706,15.78a16.578,16.578,0,0,1,4.083-6.023A20.14,20.14,0,0,1,42.726,5.98,36.578,36.578,0,0,1,56.67,3.441c1.178,0,2.251.044,3.2.114a9.846,9.846,0,0,0-.53,1.224,8.8,8.8,0,0,0-.538,3.794l.3,3.156,3.158-.108a10.138,10.138,0,0,1,3.191.629,6.623,6.623,0,0,1,4.01,3.653,14.349,14.349,0,0,1,1.007,4.772l-1.221-1.9-1.3-2.02-2.342.525A77.769,77.769,0,0,1,50.8,18.91a73.256,73.256,0,0,1-14.522-1.626L33.759,16.7,32.5,18.954l-.894,1.6A18.794,18.794,0,0,1,32.706,15.78Zm-.6,15.021a25.421,25.421,0,0,1,.472-4.956L35.5,20.624A76.12,76.12,0,0,0,50.8,22.34a80.556,80.556,0,0,0,15.569-1.716l2.221,3.464a24.547,24.547,0,0,1,.9,6.713v.082h-.621c-.5-2.48-2.425-4.287-8.427-4.287s-7.927,1.808-8.424,4.287h-2.09C49.427,28.4,47.5,26.6,41.5,26.6s-7.927,1.808-8.427,4.287h-.962C32.111,30.855,32.111,30.828,32.111,30.8Zm33.476,1.8c0,1.486-.141,1.737-.183,1.778s-.869.8-4.964.8-4.929-.763-4.962-.794-.183-.293-.183-1.779c0-1.333.271-1.572.387-1.673.239-.211,1.286-.9,4.759-.9s4.522.688,4.761.9C65.315,31.026,65.587,31.265,65.587,32.6Zm-18.941,0c0,1.486-.141,1.737-.183,1.778s-.869.8-4.962.8-4.929-.763-4.965-.794-.181-.293-.181-1.779c0-1.333.269-1.572.384-1.673.239-.211,1.286-.9,4.761-.9s4.52.688,4.758.9C46.374,31.026,46.645,31.265,46.645,32.6ZM32.427,34.313h.578c.319,2.48,1.8,4.287,8.495,4.287s8.173-1.808,8.492-4.287h1.955c.319,2.48,1.8,4.287,8.492,4.287s8.175-1.808,8.495-4.287h.236a28.232,28.232,0,0,1-6.733,13.413,29.968,29.968,0,0,1-3.063,3.03,5.15,5.15,0,0,0-5.1-4.437H47.419a5.152,5.152,0,0,0-5.105,4.513,29.573,29.573,0,0,1-3.153-3.106A28.232,28.232,0,0,1,32.427,34.313ZM47.419,66.9a1.719,1.719,0,0,1-1.714-1.643H55.991A1.719,1.719,0,0,1,54.278,66.9Zm5.146-5.073V60.112h3.429v1.716Zm3.429-5.145H52.565V54.967h3.429Zm-6.861,0H45.7V54.967h3.429ZM45.7,60.112h3.429v1.716H45.7Zm10.291-8.575H45.7v-.073a1.716,1.716,0,0,1,1.716-1.714h6.859a1.716,1.716,0,0,1,1.716,1.714v.073Zm-13.72,8.469a10.7,10.7,0,0,1-4.67-4.264c.073-.118.143-.239.206-.362s.108-.224.133-.284l.286-.633,0-.726.015-1.982a30.507,30.507,0,0,0,4.025,3.369v4.882Zm17.15-4.95a30.521,30.521,0,0,0,3.924-3.3l.015,1.982,0,.726.286.633c.023.055.068.161.133.284a5.907,5.907,0,0,0,.58.9,13.407,13.407,0,0,1-4.944,3.771v-5ZM14.911,78.905V71.064a5.975,5.975,0,0,1,4.073-5.653l.191-.058a32.9,32.9,0,0,0,6.4-2.392c.55-.261,1.025-.493,1.49-.668a35.4,35.4,0,0,0,8.072-4.035,13.74,13.74,0,0,0,1.945,2.279,15.649,15.649,0,0,0,5.191,3.2v1.447a5.152,5.152,0,0,0,5.145,5.145h1.663v8.573H14.911Zm71.775,0H52.515V70.333h1.764a5.152,5.152,0,0,0,5.145-5.145V63.76a18.1,18.1,0,0,0,5.5-3.166,15.93,15.93,0,0,0,1.987-2.01A37.825,37.825,0,0,0,74.533,62.3c.462.173.937.4,1.487.666a32.9,32.9,0,0,0,6.4,2.392l.191.058a5.975,5.975,0,0,1,4.073,5.653v7.842Z" transform="translate(-11.479 -0.01)" fill="#1e2c40"/>
</svg>
