<svg xmlns="http://www.w3.org/2000/svg" width="16" height="16" viewBox="0 0 16 16">
    <defs>
        <style>
            .cls-1{fill:#fff}
        </style>
    </defs>
    <path id="Video_Icon" d="M6.565 5.429l-3.2-3.2a.8.8 0 0 0-1.134 1.138L4.094 5.2A2.4 2.4 0 0 0 2 7.6v4.8a2.4 2.4 0 0 0 2.4 2.4h7.2a2.4 2.4 0 0 0 1.519-.552l3.51 3.518a.8.8 0 1 0 1.135-1.135zm5.03 7.764H4.4a.8.8 0 0 1-.8-.8V7.6a.8.8 0 0 1 .8-.8h1.269l6.293 6.3a.8.8 0 0 1-.368.094zm6.021-7.077a.8.8 0 0 0-.8 0l-2.823 1.392a2.4 2.4 0 0 0-2.4-2.311h-1.07a.8.8 0 0 0 0 1.6h1.071a.8.8 0 0 1 .8.8V8.8a1.3 1.3 0 0 0 0 .152.52.52 0 0 0 .04.16.562.562 0 0 1 .056.08.8.8 0 0 0 .12.168s.08.048.12.08l.136.088a.68.68 0 0 0 .184 0 .56.56 0 0 0 .112 0 1.3 1.3 0 0 0 .152 0 .52.52 0 0 0 .16-.04l2.919-1.391v4.574a.8.8 0 1 0 1.6 0V6.8a.8.8 0 0 0-.376-.68z" class="cls-1" data-name="Video Icon" transform="translate(-1.996 -1.996)"/>
</svg>
