<svg xmlns="http://www.w3.org/2000/svg" width="22.481" height="17.979" viewBox="0 0 22.481 17.979">
    <defs>
        <style>
            .cls-1{fill:#3b83fc}
        </style>
    </defs>
    <path id="eye" d="M24.384 12.54C22.114 7.27 17.844 4 13.237 4S4.36 7.27 2.09 12.54a1.124 1.124 0 0 0 0 .9c2.27 5.27 6.54 8.54 11.147 8.54s8.877-3.27 11.147-8.54a1.124 1.124 0 0 0 0-.9zm-11.147 7.191c-3.562 0-6.933-2.573-8.877-6.742 1.94-4.168 5.315-6.742 8.877-6.742s6.933 2.573 8.877 6.742c-1.944 4.169-5.314 6.742-8.877 6.742zm0-11.237a4.495 4.495 0 1 0 4.495 4.495 4.495 4.495 0 0 0-4.495-4.494zm0 6.742a2.247 2.247 0 1 1 2.247-2.247 2.247 2.247 0 0 1-2.247 2.248z" class="cls-1" transform="translate(-1.997 -4)"/>
</svg>
